# AST/ASF file generated using VICON BodyLanguage
# -----------------------------------------------
:version 1.10
:name VICON
:units
  mass 1.0
  length 0.45
  angle deg
:documentation
   .ast/.asf automatically generated from VICON data using
   VICON BodyBuilder and BodyLanguage model FoxedUp or BRILLIANT.MOD
:root
   order TX TY TZ RX RY RZ
   axis XYZ
   position 0 0 0  
   orientation 0 0 0 
:bonedata
  begin
     id 1 
     name lhipjoint
     direction 0.577973 -0.728611 0.367523 
     length 2.48544 
     axis 0 0 0  XYZ
  end
  begin
     id 2 
     name lfemur
     direction 0.34202 -0.939693 0  
     length 7.1921  
     axis 0 0 20  XYZ
    dof rx ry rz
    limits (-160.0 20.0)
           (-70.0 70.0)
           (-60.0 70.0)
  end
  begin
     id 3 
     name ltibia
     direction 0.34202 -0.939693 0   
     length 7.71059   
     axis 0 0 20   XYZ
    dof rx
    limits (-10.0 170.0)
  end
  begin
     id 4 
     name lfoot
     direction 0.089538 -0.246004 0.965124   
     length 2.19909   
     axis -90 7.62852e-016 20   XYZ
    dof rx rz
    limits (-45.0 90.0)
           (-70.0 20.0)
  end
  begin
     id 5 
     name ltoes
     direction 1.53544e-011 -4.21829e-011 1   
     length 1.10116   
     axis -90 7.62852e-016 20   XYZ
    dof rx
    limits (-90.0 20.0)
  end
  begin
     id 6 
     name rhipjoint
     direction -0.554414 -0.743062 0.374812   
     length 2.4371  
     axis 0 0 0  XYZ 
  end
  begin
     id 7 
     name rfemur
     direction -0.34202 -0.939693 0   
     length 7.47254   
     axis 0 0 -20   XYZ
    dof rx ry rz
    limits (-160.0 20.0)
           (-70.0 70.0)
           (-70.0 60.0)
  end
  begin
     id 8 
     name rtibia
     direction -0.34202 -0.939693 0   
     length 7.65855   
     axis 0 0 -20   XYZ
    dof rx
    limits (-10.0 170.0)
 end
 begin
     id 9 
     name rfoot
     direction -0.133779 -0.367555 0.92033   
     length 2.43006  
     axis -90 -7.62852e-016 -20   XYZ
    dof rx rz
    limits (-45.0 90.0)
           (-20.0 70.0)
  end
  begin
     id 10 
     name rtoes
     direction -1.53563e-011 -4.21889e-011 1   
     length 1.19625   
     axis -90 -7.62852e-016 -20   XYZ
    dof rx
    limits (-90.0 20.0)
  end
  begin
     id 11 
     name lowerback
     direction 0.0249066 0.998043 -0.0573585   
     length 2.08485   
     axis 0 0 0   XYZ
    dof rx ry rz
    limits (-20.0 45.0)
           (-30.0 30.0)
           (-30.0 30.0)
  end
  begin
     id 12 
     name upperback
     direction 0.0237884 0.999673 0.00943178   
     length 2.08515   
     axis 0 0 0   XYZ
    dof rx ry rz
    limits (-20.0 45.0)
           (-30.0 30.0)
           (-30.0 30.0)
  end
  begin
     id 13 
     name thorax
     direction 0.0106671 0.999301 0.0358174   
     length 2.09037   
     axis 0 0 0   XYZ
    dof rx ry rz
    limits (-20.0 45.0)
           (-30.0 30.0)
           (-30.0 30.0)
  end
  begin
     id 14 
     name lowerneck
     direction -0.0580016 0.987052 0.149546   
     length 1.84454   
     axis 0 0 0   XYZ
    dof rx ry rz
    limits (-20.0 45.0)
           (-30.0 30.0)
           (-30.0 30.0)
  end
  begin
     id 15 
     name upperneck
     direction 0.079456 0.981963 -0.171567   
     length 1.88141   
     axis 0 0 0   XYZ
    dof rx ry rz
    limits (-20.0 45.0)
           (-30.0 30.0)
           (-30.0 30.0)
  end
  begin
     id 16
     name head
     direction 0.0262167 0.9967 -0.0768276  
     length 1.89541  
     axis 0 0 0   XYZ
    dof rx ry rz
    limits (-20.0 45.0)
           (-30.0 30.0)
           (-30.0 30.0)
  end
  begin
     id 17 
     name lclavicle
     direction 0.946135 0.322134 -0.0325326  
     length 3.949  
     axis 0 0 0   XYZ
    dof ry rz
    limits (-20.0 10.0)
           (0.0 20.0)
  end
  begin
     id 18 
     name lhumerus
     direction 1 -4.48964e-011 1.94005e-028   
     length 5.10995   
     axis 180 -30 -90   XYZ
    dof rx ry rz
    limits (-60.0 90.0)
           (-90.0 90.0)
           (-90.0 90.0)
  end
  begin
     id 19
     name lradius
     direction 1 -4.48976e-011 2.87852e-027   
     length 3.21207   
     axis 180 -30 -90   XYZ
    dof rx
    limits (-10.0 170.0)
  end
  begin
     id 20
     name lwrist
     direction 1 -4.48963e-011 1.9975e-027   
     length 1.60604   
     axis 2.96054e-016 90 90   XYZ
    dof ry
    limits (-180.0 0.0)
 end
  begin
     id 21 
     name lhand
     direction 1 -4.48919e-011 4.00227e-027   
     length 0.63349   
     axis -2.5488e-015 90 90   XYZ
    dof rx rz
    limits (-90.0 90.0)
           (-45.0 45.0)
  end
  begin
     id 22 
     name lfingers
     direction 1 -4.49037e-011 7.9652e-027   
     length 0.510736   
     axis -5.0975e-015 90 90   XYZ
    dof rx
    limits (0.0 90.0)
  end
  begin
     id 23
     name lthumb
     direction 0.707107 -6.34922e-011 0.707107   
     length 0.733318   
     axis -90 45 -4.48553e-014   XYZ
    dof rx rz
    limits (-45.0 45.0)
           (-45.0 45.0)
  end
  begin
     id 24 
     name rclavicle
     direction -0.940085 0.328911 -0.0897654   
     length 3.93848  
     axis 0 0 0   XYZ 
    dof ry rz
    limits (-10.0 20.0)
           (-20.0 0.0)
  end
  begin
     id 25 
     name rhumerus
     direction -1 -4.48958e-011 3.02044e-027  
     length 5.25109   
     axis 180 30 90   XYZ
    dof rx ry rz
    limits (-90.0 60.0)
           (-90.0 90.0)
           (-90.0 90.0)
  end
  begin
     id 26 
     name rradius
     direction -1 -4.4897e-011 9.78352e-028   
     length 3.28364   
     axis 180 30 90   XYZ
    dof rx
    limits (-10.0 170.0)
  end
  begin
     id 27 
     name rwrist
     direction -1 -4.48943e-011 1.99918e-027   
     length 1.64182   
     axis 2.96054e-016 -90 -90   XYZ
    dof ry
    limits (-180.0 0.0)
  end
  begin
     id 28
     name rhand
     direction -1 -4.49024e-011 3.98478e-027   
     length 0.599745   
     axis -2.5488e-015 -90 -90   XYZ
    dof rx rz
    limits (-90.0 90.0)
           (-45.0 45.0)
  end
  begin
     id 29
     name rfingers
     direction -1 -4.48914e-011 8.00621e-027   
     length 0.48353   
     axis -5.0975e-015 -90 -90   XYZ
    dof rx
    limits (0.0 90.0)
  end
  begin
     id 30
     name rthumb
     direction -0.707107 -6.34992e-011 0.707107   
     length 0.694255   
     axis -90 -45 4.48553e-014   XYZ
    dof rx rz
    limits (-45.0 45.0)
           (-45.0 45.0)
  end
:hierarchy
  begin
    root lhipjoint rhipjoint lowerback
    lhipjoint lfemur
    lfemur ltibia
    ltibia lfoot
    lfoot ltoes
    rhipjoint rfemur
    rfemur rtibia
    rtibia rfoot
    rfoot rtoes
    lowerback upperback
    upperback thorax
    thorax lowerneck lclavicle rclavicle
    lowerneck upperneck
    upperneck head
    lclavicle lhumerus
    lhumerus lradius
    lradius lwrist
    lwrist lhand lthumb
    lhand lfingers
    rclavicle rhumerus
    rhumerus rradius
    rradius rwrist
    rwrist rhand rthumb
    rhand rfingers
  end

#!OML:ASF E:\CV Data\Top Level 1\Subject 1\Session 1\player.ASF
:FULLY-SPECIFIED
:DEGREES
148
root 10.1001 16.6938 -9.64478 -151.703 -95.1079 -198.951
lowerback 18.4627 1.55394 1.46758
upperback 4.59119 2.18529 2.22375
thorax -5.42245 0.943006 1.05025
lowerneck -16.6056 15.0618 -3.14288
upperneck 9.53891 21.2976 -2.7856
head 5.50024 10.054 1.56534
rclavicle 1.27222e-014 2.54444e-014
rhumerus -19.4039 -0.0733188 -77.057
rradius 125.813
rwrist -20.2699
rhand -22.9861 16.9501
rfingers 7.12502
rthumb 3.4565 -13.0016
lclavicle 1.27222e-014 2.54444e-014
lhumerus 17.3187 -58.1084 89.9683
lradius 61.4073
lwrist 0.447717
lhand -32.7192 -0.682442
lfingers 7.12502
lthumb -5.94314 29.2142
rfemur -35.6813 -5.39127 19.1054
rtibia 53.0667
rfoot -23.5926 -10.6646
rtoes -4.73126
lfemur -31.5635 7.41839 -3.80885
ltibia 35.8329
lfoot -10.4007 -5.64427
ltoes -11.7806
149
root 10.1003 16.6931 -9.66245 -151.578 -95.191 -199.046
lowerback 18.4557 1.56072 1.44085
upperback 4.60141 2.18935 2.23995
thorax -5.40951 0.945198 1.08199
lowerneck -16.613 15.0578 -3.16776
upperneck 9.4612 21.298 -2.82674
head 5.47891 10.0536 1.55311
rclavicle 4.37326e-015 1.19271e-014
rhumerus -19.5192 -0.930667 -76.7504
rradius 126.286
rwrist -20.2782
rhand -23.5947 17.1391
rfingers 7.12502
rthumb 2.86883 -12.8214
lclavicle 4.37326e-015 1.19271e-014
lhumerus 16.804 -57.9191 90.1519
lradius 61.056
lwrist 0.420901
lhand -32.8419 -0.968168
lfingers 7.12502
lthumb -6.06158 28.9251
rfemur -35.7199 -5.40292 19.2162
rtibia 53.0868
rfoot -23.6167 -10.711
rtoes -4.64678
lfemur -31.586 7.41254 -3.71338
ltibia 35.7591
lfoot -10.3489 -5.68619
ltoes -11.7166
150
root 10.1005 16.6923 -9.67973 -151.499 -95.2651 -199.097
lowerback 18.4547 1.57626 1.42042
upperback 4.61261 2.2054 2.24447
thorax -5.39818 0.953134 1.09488
lowerneck -16.6248 15.0453 -3.17966
upperneck 9.37734 21.2833 -2.86392
head 5.45723 10.0468 1.53922
rclavicle 1.19271e-015 1.35174e-014
rhumerus -19.6386 -1.7873 -76.4425
rradius 126.734
rwrist -20.2561
rhand -24.28 17.2996
rfingers 7.12502
rthumb 2.20696 -12.6688
lclavicle 1.19271e-015 1.35174e-014
lhumerus 16.3071 -57.7663 90.3078
lradius 60.7008
lwrist 0.399085
lhand -32.9985 -1.2287
lfingers 7.12502
lthumb -6.21273 28.6602
rfemur -35.7593 -5.40941 19.3175
rtibia 53.1091
rfoot -23.6427 -10.7525
rtoes -4.54825
lfemur -31.6055 7.41775 -3.62886
ltibia 35.6843
lfoot -10.2981 -5.73184
ltoes -11.6669
151
root 10.1009 16.6914 -9.69601 -151.583 -95.3451 -198.983
lowerback 18.4556 1.59048 1.41531
upperback 4.62392 2.2219 2.23577
thorax -5.3866 0.961173 1.08488
lowerneck -16.6386 15.0272 -3.1789
upperneck 9.28516 21.2577 -2.90052
head 5.43445 10.0355 1.52281
rclavicle -1.55052e-014 -9.54166e-015
rhumerus -19.7555 -2.64787 -76.1341
rradius 127.158
rwrist -20.2557
rhand -24.9454 17.4316
rfingers 7.12502
rthumb 1.56434 -12.5424
lclavicle -1.55052e-014 -9.54166e-015
lhumerus 15.8142 -57.6376 90.4509
lradius 60.3452
lwrist 0.362794
lhand -33.1952 -1.46499
lfingers 7.12502
lthumb -6.40268 28.4182
rfemur -35.8014 -5.42998 19.4023
rtibia 53.1336
rfoot -23.6705 -10.7838
rtoes -4.43529
lfemur -31.6329 7.40484 -3.56016
ltibia 35.6103
lfoot -10.2449 -5.77029
ltoes -11.614
152
root 10.1014 16.6907 -9.7116 -151.806 -95.4228 -198.729
lowerback 18.4691 1.60743 1.40577
upperback 4.63128 2.24159 2.225
thorax -5.38602 0.97079 1.07414
lowerneck -16.6493 15.0064 -3.18184
upperneck 9.19115 21.2287 -2.93512
head 5.41003 10.0227 1.50674
rclavicle -1.66979e-014 1.59028e-014
rhumerus -19.8721 -3.50419 -75.8087
rradius 127.558
rwrist -20.3168
rhand -25.5099 17.5383
rfingers 7.12502
rthumb 1.01911 -12.439
lclavicle -1.66979e-014 1.59028e-014
lhumerus 15.3004 -57.518 90.6226
lradius 59.9874
lwrist 0.299094
lhand -33.3598 -1.6799
lfingers 7.12502
lthumb -6.56159 28.1984
rfemur -35.8426 -5.45724 19.4705
rtibia 53.16
rfoot -23.6974 -10.8131
rtoes -4.33994
lfemur -31.6605 7.37141 -3.50536
ltibia 35.5382
lfoot -10.1912 -5.79323
ltoes -11.5618
153
root 10.1019 16.6901 -9.72665 -152.071 -95.4926 -198.437
lowerback 18.4866 1.62065 1.39454
upperback 4.63975 2.2559 2.21167
thorax -5.38632 0.977744 1.0628
lowerneck -16.6605 14.992 -3.18925
upperneck 9.09507 21.2089 -2.96853
head 5.38437 10.0145 1.4922
rclavicle -1.55052e-014 -2.06736e-014
rhumerus -19.9739 -4.34092 -75.4828
rradius 127.933
rwrist -20.4394
rhand -25.9152 17.6218
rfingers 7.12502
rthumb 0.627653 -12.357
lclavicle -1.55052e-014 -2.06736e-014
lhumerus 14.7749 -57.3738 90.8234
lradius 59.6013
lwrist 0.180341
lhand -33.497 -1.92794
lfingers 7.12502
lthumb -6.69405 27.9462
rfemur -35.8824 -5.47966 19.5276
rtibia 53.1874
rfoot -23.7224 -10.8409
rtoes -4.2582
lfemur -31.6842 7.32273 -3.45658
ltibia 35.4691
lfoot -10.1381 -5.79615
ltoes -11.5165
154
root 10.1023 16.6894 -9.74094 -152.345 -95.5512 -198.14
lowerback 18.5084 1.62578 1.37634
upperback 4.65052 2.25838 2.20276
thorax -5.3867 0.978888 1.06273
lowerneck -16.6713 14.9893 -3.21729
upperneck 8.99894 21.2085 -2.99771
head 5.35597 10.0156 1.48279
rclavicle 1.39149e-014 1.90833e-014
rhumerus -20.0553 -5.13014 -75.1537
rradius 128.282
rwrist -20.5936
rhand -26.1669 17.6856
rfingers 7.12502
rthumb 0.384521 -12.2938
lclavicle 1.39149e-014 1.90833e-014
lhumerus 14.242 -57.1963 91.0329
lradius 59.2084
lwrist 0.011405
lhand -33.6267 -2.15082
lfingers 7.12502
lthumb -6.81921 27.7194
rfemur -35.9186 -5.49596 19.5749
rtibia 53.2152
rfoot -23.7437 -10.8707
rtoes -4.20641
lfemur -31.7002 7.27057 -3.4138
ltibia 35.403
lfoot -10.0881 -5.78972
ltoes -11.4677
155
root 10.1027 16.6886 -9.75447 -152.592 -95.6065 -197.87
lowerback 18.5246 1.61814 1.35865
upperback 4.66711 2.24386 2.19811
thorax -5.37789 0.971649 1.07097
lowerneck -16.6855 14.9986 -3.2579
upperneck 8.90184 21.2272 -3.02839
head 5.32661 10.0255 1.47623
rclavicle -1.90833e-014 -1.19271e-014
rhumerus -20.1111 -5.85677 -74.8331
rradius 128.601
rwrist -20.7261
rhand -26.3215 17.7459
rfingers 7.12502
rthumb 0.235221 -12.2337
lclavicle -1.90833e-014 -1.19271e-014
lhumerus 13.691 -56.9518 91.2875
lradius 58.7888
lwrist -0.234475
lhand -33.7387 -2.35738
lfingers 7.12502
lthumb -6.9273 27.5093
rfemur -35.9545 -5.50921 19.6201
rtibia 53.2427
rfoot -23.761 -10.9059
rtoes -4.18449
lfemur -31.7152 7.2123 -3.37141
ltibia 35.3414
lfoot -10.0411 -5.77142
ltoes -11.448
156
root 10.1029 16.6879 -9.76699 -152.826 -95.6559 -197.616
lowerback 18.5396 1.60111 1.33863
upperback 4.68584 2.21661 2.19786
thorax -5.36628 0.958165 1.08816
lowerneck -16.6992 15.0172 -3.3088
upperneck 8.80823 21.2604 -3.0582
head 5.29708 10.0422 1.47243
rclavicle -2.38542e-015 7.95139e-016
rhumerus -20.153 -6.51121 -74.5162
rradius 128.895
rwrist -20.7882
rhand -26.4423 17.788
rfingers 7.12502
rthumb 0.118562 -12.1917
lclavicle -2.38542e-015 7.95139e-016
lhumerus 13.124 -56.6578 91.5814
lradius 58.3472
lwrist -0.552111
lhand -33.8909 -2.55397
lfingers 7.12502
lthumb -7.07421 27.3078
rfemur -35.9889 -5.52082 19.6595
rtibia 53.2699
rfoot -23.7782 -10.9401
rtoes -4.16365
lfemur -31.7262 7.13461 -3.32888
ltibia 35.284
lfoot -9.99871 -5.72952
ltoes -11.4555
